<svg id="Layer_1" data-name="Layer 1" xmlns="http://www.w3.org/2000/svg" viewBox="0 0 820.42 820.42"><defs><style>.cls-1{fill:#f1f1ff;}</style></defs><title>linkedin_sm</title><path class="cls-1" d="M233.12,168.27c-18.77,0-35.84,6.82-48.64,19.62C170.83,201.55,164,218.61,164,236.53a68.41,68.41,0,0,0,20.48,48.64c12.8,12.8,30.72,20.48,47.79,19.63H234c17.07,0,33.28-6.83,46.08-19.63a68.41,68.41,0,0,0,20.48-48.64c.86-17.92-6.82-35-19.62-47.78A64.56,64.56,0,0,0,233.12,168.27Zm35,105c-9.39,9.38-22.19,15.36-35.84,14.5-12.8,0-26.46-5.12-35.84-14.5-10.24-9.39-15.36-23-15.36-36.7a51,51,0,0,1,15.36-36.69c9.38-9.39,22.18-14.51,36.69-14.51a49.79,49.79,0,0,1,35,14.51,51,51,0,0,1,15.36,36.69C283.47,250.19,278.35,263.84,268.11,273.23Z" transform="translate(-9.79 -9.79)"/><path class="cls-1" d="M266.4,321.87H197.28c-13.65,0-24.75,11.09-24.75,25.6V646.13c0,13.66,11.95,25.6,25.6,25.6H266.4c13.65,0,25.6-11.94,25.6-24.74V347.47C292,333.81,280.05,321.87,266.4,321.87ZM274.93,647c0,4.26-4.26,7.68-8.53,7.68H198.13c-4.26,0-8.53-4.27-8.53-8.54V347.47c0-4.27,3.41-8.54,7.68-8.54H266.4c4.27,0,8.53,4.27,8.53,8.54Z" transform="translate(-9.79 -9.79)"/><path class="cls-1" d="M556.53,313.33H538.61c-33.28,0-64.85,14.51-85.33,37.55V338.93c0-8.53-8.53-17.06-17.07-17.06H350.88c-7.68,0-17.07,6.82-17.07,16.21V656.37c0,9.39,9.39,15.36,17.07,15.36h93.87c7.68,0,17.06-6,17.06-15.36V472.05c0-28.16,20.48-50.35,46.94-50.35a50.3,50.3,0,0,1,35.84,14.51c8.53,7.68,11.94,19.63,11.94,35V654.67c0,8.53,8.54,17.06,17.07,17.06h85.33c8.54,0,17.07-8.53,17.07-17.06V434.51C676,366.24,624,313.33,556.53,313.33Zm102.4,340.48-.85.86H574.45L573.6,471.2c0-20.48-5.12-35.84-16.21-46.93a67.13,67.13,0,0,0-47.79-19.63c-35.84.85-64,29.87-64,67.41V654.67H351.73V338.93h84.48l.86.86v53.76l23-23,.85-.86c17.07-23.89,46.93-39.25,78.51-39.25h17.92c57.17,0,101.54,46.08,101.54,104.11Z" transform="translate(-9.79 -9.79)"/><path class="cls-1" d="M420,830.21A410.32,410.32,0,0,1,260.32,42,410.32,410.32,0,0,1,579.68,798,407.75,407.75,0,0,1,420,830.21Zm0-802.42a392.31,392.31,0,0,0-152.66,753.6A392.31,392.31,0,0,0,572.66,58.61,389.7,389.7,0,0,0,420,27.79Z" transform="translate(-9.79 -9.79)"/></svg>