<?xml version="1.0" encoding="UTF-8"?>
<svg width="482px" height="251px" viewBox="0 0 482 251" version="1.1" xmlns="http://www.w3.org/2000/svg" xmlns:xlink="http://www.w3.org/1999/xlink">
    <!-- Generator: Sketch 59 (86127) - https://sketch.com -->
    <title>SAM_1</title>
    <desc>Created with Sketch.</desc>
    <defs>
        <linearGradient x1="0%" y1="49.2508172%" x2="90.4507357%" y2="50.2860844%" id="linearGradient-1">
            <stop stop-color="#53B9AE" offset="0%"></stop>
            <stop stop-color="#303842" offset="100%"></stop>
        </linearGradient>
        <linearGradient x1="0%" y1="49.2508172%" x2="100%" y2="50.2224376%" id="linearGradient-2">
            <stop stop-color="#8CDED7" offset="0%"></stop>
            <stop stop-color="#303842" offset="100%"></stop>
        </linearGradient>
        <linearGradient x1="35.0528159%" y1="6.86295474%" x2="66.7967894%" y2="93.5682485%" id="linearGradient-3">
            <stop stop-color="#303842" offset="0%"></stop>
            <stop stop-color="#303842" offset="38.6270059%"></stop>
            <stop stop-color="#53B9AE" offset="79.1807293%"></stop>
            <stop stop-color="#1B998B" offset="100%"></stop>
        </linearGradient>
        <linearGradient x1="0%" y1="15.6331656%" x2="75.579599%" y2="15.6331656%" id="linearGradient-4">
            <stop stop-color="#F1F1FF" offset="0%"></stop>
            <stop stop-color="#F1F1FF" offset="45.5824802%"></stop>
            <stop stop-color="#E65858" offset="59.8257146%"></stop>
            <stop stop-color="#E23D3D" offset="100%"></stop>
        </linearGradient>
        <linearGradient x1="0%" y1="46.1186932%" x2="100%" y2="50%" id="linearGradient-5">
            <stop stop-color="#F1F1FF" offset="0%"></stop>
            <stop stop-color="#F1F1FF" offset="33.9691649%"></stop>
            <stop stop-color="#E65858" offset="60.5028887%"></stop>
            <stop stop-color="#E65858" offset="100%"></stop>
        </linearGradient>
    </defs>
    <g id="SAM_1" stroke="none" stroke-width="1" fill="none" fill-rule="evenodd">
        <g id="Group-3" transform="translate(11.000000, 98.000000)">
            <polygon id="Path-32" fill="#FAEFCA" points="140.895601 28.2252322 49.0743109 141 100.717932 140.591237"></polygon>
            <polygon id="Path-30" fill="#FBE59D" points="198.834738 99.1170525 176.283217 71.2395115 235.43276 0.99625582"></polygon>
            <polygon id="Path-34" fill="#FFDC6B" points="292.20736 69.3963569 320.124424 37.5183994 301.662519 81.655286"></polygon>
            <polygon id="Path-31" fill="#FFDC6B" points="140.895601 28.2252322 232.716891 141 98.9515484 141"></polygon>
            <polygon id="Path-33" fill="#FBE59D" points="320.124424 36.6671573 301.662519 81.655286 350.066347 141 404.816089 141"></polygon>
            <polygon id="Path-29" fill="#FAEFCA" points="235.43276 2.20239983e-13 350.066347 140.591237 232.716891 140.591237 198.834738 99.1170525"></polygon>
            <polygon id="Path-2" stroke="#EEC643" stroke-width="3" stroke-linecap="round" stroke-linejoin="round" points="49.0743109 140.591237 140.542322 28.2252322 232.716891 140.591237"></polygon>
            <line x1="140.895601" y1="28.2252322" x2="98.9515484" y2="140.591237" id="Path-3" stroke="#EEC643" stroke-width="3" stroke-linecap="round" stroke-linejoin="round"></line>
            <polyline id="Path-4" stroke="#EEC643" stroke-width="3" stroke-linecap="round" stroke-linejoin="round" points="176.283217 71.2395115 235.43276 2.27373675e-13 198.834738 99.1170525 232.716891 140.591237 350.066347 140.591237"></polyline>
            <polyline id="Path-5" stroke="#EEC643" stroke-width="3" stroke-linecap="round" stroke-linejoin="round" points="235.43276 2.27373675e-13 302.011862 81.655286 350.066347 140.591237 404.816089 140.591237 320.124424 36.6671573"></polyline>
            <polyline id="Path-6" stroke="#EEC643" stroke-width="3" stroke-linecap="round" stroke-linejoin="round" points="302.011862 81.655286 320.124424 36.6671573 292.20736 69.3963569"></polyline>
            <line x1="60.141635" y1="134.69792" x2="95.1629741" y2="134.69792" id="Path-7" stroke="#EEC643" stroke-width="3" stroke-linecap="round" stroke-linejoin="round"></line>
            <line x1="65.9289611" y1="126.911525" x2="97.5775179" y2="126.904781" id="Path-8" stroke="#EEC643" stroke-width="3" stroke-linecap="round" stroke-linejoin="round"></line>
            <line x1="72.4071195" y1="119.222421" x2="101.253189" y2="119.222421" id="Path-9" stroke="#EEC643" stroke-width="3" stroke-linecap="round" stroke-linejoin="round"></line>
            <line x1="78.5107967" y1="111.716275" x2="103.990819" y2="111.716275" id="Path-10" stroke="#EEC643" stroke-width="3" stroke-linecap="round" stroke-linejoin="round"></line>
            <line x1="84.6579185" y1="103.647795" x2="107.065603" y2="103.647795" id="Path-11" stroke="#EEC643" stroke-width="3" stroke-linecap="round" stroke-linejoin="round"></line>
            <line x1="91.2508077" y1="96.1606179" x2="110.185057" y2="96.1606179" id="Path-12" stroke="#EEC643" stroke-width="3" stroke-linecap="round" stroke-linejoin="round"></line>
            <line x1="97.5775179" y1="88.5473897" x2="112.909836" y2="88.5473897" id="Path-13" stroke="#EEC643" stroke-width="3" stroke-linecap="round" stroke-linejoin="round"></line>
            <line x1="103.990819" y1="80.8197367" x2="115.998083" y2="80.8197367" id="Path-14" stroke="#EEC643" stroke-width="3" stroke-linecap="round" stroke-linejoin="round"></line>
            <line x1="109.994451" y1="73.3142025" x2="118.698386" y2="73.3142025" id="Path-15" stroke="#EEC643" stroke-width="3" stroke-linecap="round" stroke-linejoin="round"></line>
            <line x1="115.998083" y1="65.565745" x2="122.207618" y2="65.565745" id="Path-16" stroke="#EEC643" stroke-width="3" stroke-linecap="round" stroke-linejoin="round"></line>
            <line x1="121.307254" y1="57.9472277" x2="125.070565" y2="57.9472277" id="Path-17" stroke="#EEC643" stroke-width="3" stroke-linecap="round" stroke-linejoin="round"></line>
            <line x1="126.838853" y1="50.2467588" x2="128.72022" y2="50.2467588" id="Path-18" stroke="#EEC643" stroke-width="3" stroke-linecap="round" stroke-linejoin="round"></line>
            <line x1="217.82615" y1="27.5746175" x2="220.87872" y2="27.5746175" id="Path-19" stroke="#EEC643" stroke-width="3" stroke-linecap="round" stroke-linejoin="round"></line>
            <line x1="211.231738" y1="37.2010153" x2="216.390485" y2="37.2010153" id="Path-20" stroke="#EEC643" stroke-width="3" stroke-linecap="round" stroke-linejoin="round"></line>
            <line x1="203.573639" y1="46.7615189" x2="212.712347" y2="46.7615189" id="Path-21" stroke="#EEC643" stroke-width="3" stroke-linecap="round" stroke-linejoin="round"></line>
            <line x1="195.716884" y1="56.2579554" x2="208.881105" y2="56.2579554" id="Path-22" stroke="#EEC643" stroke-width="3" stroke-linecap="round" stroke-linejoin="round"></line>
            <line x1="188.107872" y1="65.9454971" x2="205.235732" y2="65.9454971" id="Path-23" stroke="#EEC643" stroke-width="3" stroke-linecap="round" stroke-linejoin="round"></line>
            <line x1="201.010074" y1="75.5496676" x2="180.5" y2="75.5" id="Path-24" stroke="#EEC643" stroke-width="3" stroke-linecap="round" stroke-linejoin="round"></line>
            <line x1="302.747584" y1="71.1034434" x2="294.344803" y2="71.1034434" id="Path-25" stroke="#EEC643" stroke-width="3" stroke-linecap="round" stroke-linejoin="round"></line>
            <line x1="305.559277" y1="63.9380433" x2="301.662519" y2="63.9380433" id="Path-26" stroke="#EEC643" stroke-width="3" stroke-linecap="round" stroke-linejoin="round"></line>
            <line x1="308.828021" y1="56.7866013" x2="306.609497" y2="56.7866013" id="Path-27" stroke="#EEC643" stroke-width="3" stroke-linecap="round" stroke-linejoin="round"></line>
            <line x1="0" y1="140.591237" x2="454.246094" y2="140.591237" id="Path-28" stroke="#EEC643" stroke-width="3" stroke-linecap="round" stroke-linejoin="round"></line>
        </g>
        <g id="Group-5" transform="translate(35.000000, 7.000000)">
            <path d="M-2.84217094e-13,46.4703973 C3.31049114,49.4010166 9.68674018,50.6844904 19.1287471,50.3208187 C33.2917575,49.7753111 41.5269244,49.1053303 52.0445522,49.1053303 C62.5621799,49.1053303 67.2457639,51.4113812 80.8832696,51.4113812 C94.5207754,51.4113812 97.3049811,50.3208187 98.2313281,50.3208187 C98.8488928,50.3208187 99.4035294,50.6843395 99.8952379,51.4113812 C102.603921,51.7846028 105.568847,51.9712135 108.790017,51.9712135 C111.54724,51.9712135 116.338009,51.1600254 123.140627,50.886572 C123.903725,50.8558967 125.102027,51.0308331 126.735531,51.4113812 C121.623381,51.4113812 119.067306,51.597992 119.067306,51.9712135 C119.067306,52.3444351 121.935796,53.8502361 127.672775,56.4886164 C120.911909,57.020502 114.996497,57.4539087 109.926538,57.7888366 C104.85658,58.1237645 100.958176,57.9279317 98.2313281,57.2013381 L92.1859524,57.2013381 C85.4196875,58.6934313 80.3296379,59.6303546 76.9158035,60.0121082 C73.5019691,60.3938617 68.3785182,60.5990676 61.5454508,60.6277257 C57.4667069,60.3925993 53.2211063,60.1873935 48.8086488,60.0121082 C44.3961913,59.8368229 38.363498,59.6337416 30.7105689,59.4028643 C26.7903438,59.5522584 24.1375811,59.7553397 22.7522808,60.0121082 C18.1509057,60.8649834 15.7300618,62.0985342 13.4785358,62.0985342 C10.2102358,62.0985342 7.81250293,61.6082647 6.28533735,60.6277257 C9.21155976,60.7783641 11.9279858,60.5731583 14.4346153,60.0121082 C18.1945597,59.170533 17.621785,57.3542929 24.7778283,56.4886164 C29.5485238,55.9114987 37.163005,55.747784 47.6212719,55.9974721 C55.5838755,56.6260095 63.554281,56.6260095 71.5324885,55.9974721 C79.510696,55.3689348 85.1636069,54.2956657 88.4912213,52.777665 C82.3161335,52.777665 76.6632225,52.777665 71.5324885,52.777665 C66.4017545,52.777665 59.9057757,52.3222371 52.0445522,51.4113812 L24.7778283,53.5490615 C17.0240111,53.0227409 11.6234303,52.3101808 8.57608572,51.4113812 C5.52874114,50.5125816 2.6700459,48.8655869 -2.84217094e-13,46.4703973 Z" id="Path-35" stroke="url(#linearGradient-2)" stroke-width="0.5" fill="url(#linearGradient-1)" stroke-linejoin="round"></path>
            <path d="M177.590526,59.1485457 C178.162366,59.6757879 178.509297,60.1166072 178.631318,60.4710036 C178.75334,60.8254 178.75334,61.3921973 178.631318,62.1713956 C178.270783,61.5147139 177.9857,61.0743106 177.776068,60.8501855 C177.566436,60.6260605 177.225523,60.3971871 176.753328,60.1635655 L176.348269,60.4710036 C176.935416,60.8797237 177.349502,61.2156098 177.590526,61.4786618 C177.83155,61.7417138 178.052989,62.099435 178.254843,62.5518253 C177.606405,62.4244718 177.1059,62.297662 176.753328,62.1713956 C176.400756,62.0451293 176.015337,61.814218 175.597073,61.4786618 L175.092097,60.4710036" id="Path-36" stroke="#EEC643" stroke-width="0.5" fill="#FFDC6B"></path>
            <polyline id="Path-37" fill="url(#linearGradient-3)" points="177.590526 59.1485457 178.513375 58.8466047 177.270376 58.10112 179.277327 56.4976174 176.907466 56.832172 178.34103 55.482662 176.907466 53.5546274 175.553812 55.9835425 175.553812 52.3987201 175.290068 53.0183504 174.187163 51.9586101 174.37302 54.970617 173.133846 51.4113812 173.824627 54.4659305 171.46279 51.9586101 172.373081 53.8808087 169.904675 51.4113812 171.46279 48.3572947 171.636792 44.1122439 172.643964 39.4892491 171.077181 34.3977255 170.808976 41.4048505 170.212525 40.9284558 166.833572 29.15066 167.551123 14.1831132 166.262489 10.0395579 166.558866 21.429387 165.965602 21.429387 164.812345 8.17229374 160.799719 1.56468057 162.350823 10.0395579 164.416921 20.071123 164.162993 22.229045 161.5703 9.57826067 154.852804 -8.5470341e-14 158.125443 9.37095603 162.350823 22.4373646 156.57128 7.97805666 149.12884 0.184341269 154.852804 12.0904021 160.799719 21.8618849 160.467395 22.229045 149.892409 7.70401871 142.972739 2.35495019 146.745077 9.11163494 152.33583 17.6650444 139.473579 6.94216784 151.433697 22.229045 151.433697 22.9416705 138.497511 15.232577 141.667406 20.071123 145.514188 23.4641188 140.953297 22.9416705 142.656221 25.9360426 141.992082 26.573942 144.055121 29.9630049 142.972739 31.8505681 143.654215 32.1482038 141.667406 34.0103931 142.344038 34.8144915 140.953297 36.1594342 141.992082 36.6685612 140.953297 38.5193323 142.344038 40.3519611 141.240878 43.173537 142.156651 44.3087646 140.953297 44.8118019 142.156651 45.9422084 141.992082 47.307704 153.507184 48.3572947 159.907559 52.3987201 157.660434 56.832172 156.975264 61.4421266 151.433697 63.3209924 154.192843 64.8288953 170.212525 62.5518253 171.46279 61.9603088 171.077181 62.5518253 173.824627 60.8501855 174.37302 61.4421266 175.290068 60.8501855"></polyline>
            <polygon id="Path-38" stroke="#1B998B" stroke-width="0.5" fill="#1B998B" points="147.832197 48.0343516 140.793646 50.0620887 140.793646 51.9475234 139.59284 51.9475234 138.497511 51.9475234 135.403542 50.8589246 133.809468 50.8589246 131.326729 49.9909375 127.211366 50.0620887 121.960215 48.4168787 132.993875 47.4473901 142.274659 47.4473901"></polygon>
            <polygon id="Path-39" stroke="url(#linearGradient-5)" stroke-width="0.5" fill="url(#linearGradient-4)" points="154.192843 64.8288953 148.867007 63.8631272 142.291057 63.8631272 140.272357 64.8288953 137.978628 64.3460112 139.896638 63.8631272 140.272357 63.1121029 138.497511 62.0985342 134.896206 60.7095694 127.672775 58.3998045 130.914186 58.3998045 125.738696 56.9261018 127.672775 56.4886164 119.302849 51.9475234 126.735531 51.4113812 100.553998 51.0046629 98.9587734 49.6974568 121.960215 48.4168787 127.672775 50.2255789 131.609813 50.2255789 133.809468 50.8589246 135.620458 51.0046629 138.497511 51.9475234 140.793646 51.9475234 140.793646 50.2255789 148.250206 47.8476692 154.192843 48.4168787 159.907559 52.3987201 157.63916 56.9261018 156.975264 61.4421266 151.433697 63.3209924"></polygon>
        </g>
    </g>
</svg>